<svg xmlns="http://www.w3.org/2000/svg" version="1.1" xmlns:xlink="http://www.w3.org/1999/xlink" xmlns:svgjs="http://svgjs.dev/svgjs" viewBox="0 0 12.31984569618485 4.347078643676206"><g transform="matrix(1,0,0,1,5.1687907816346454,1.0263439155881031)"><g><path d=" M 0.6796979999999999 0.18818999999999986 L 0.45386999999999994 0.18818999999999986 L 0.45386999999999994 0.7859699999999998 L 0.238005 0.7859699999999998 L 0.238005 0.18818999999999986 L 0.01107 0.18818999999999986 L 0.01107 -1.1102230246251565e-16 L 0.6796979999999999 -1.1102230246251565e-16 L 0.6796979999999999 0.18818999999999986 M 0.7693909453125 0.7859699999999998 L 0.7693909453125 -1.1102230246251565e-16 L 1.1302729453125 -1.1102230246251565e-16 Q 1.1878369453125 -1.1102230246251565e-16 1.2365449453125 0.023246999999999907 Q 1.2852529453125 0.046493999999999924 1.3206769453125 0.08579249999999994 Q 1.3561009453125 0.12509099999999984 1.3754734453125 0.17379899999999993 Q 1.3948459453125 0.2225069999999999 1.3948459453125 0.27232199999999984 Q 1.3948459453125 0.31770899999999985 1.3815619453124999 0.35977499999999984 Q 1.3682779453124998 0.4018409999999999 1.3428169453124998 0.43671149999999986 Q 1.3173559453124999 0.47158199999999983 1.2819319453125 0.49704299999999985 L 1.4479819453124998 0.7859699999999998 L 1.2110839453125 0.7859699999999998 L 1.0727089453124998 0.5446439999999999 L 0.9852559453124999 0.5446439999999999 L 0.9852559453124999 0.7859699999999998 L 0.7693909453125 0.7859699999999998 M 0.9852559453124999 0.3564539999999999 L 1.1214169453124998 0.3564539999999999 Q 1.1347009453124999 0.3564539999999999 1.1468779453125 0.3464909999999999 Q 1.1590549453124999 0.3365279999999999 1.1673574453125 0.31770899999999985 Q 1.1756599453124998 0.2988899999999999 1.1756599453124998 0.27232199999999984 Q 1.1756599453124998 0.24464699999999984 1.1662504453125 0.2263814999999999 Q 1.1568409453125 0.20811599999999986 1.1430034453125 0.1981529999999999 Q 1.1291659453124998 0.18818999999999986 1.1158819453125 0.18818999999999986 L 0.9852559453124999 0.18818999999999986 L 0.9852559453124999 0.3564539999999999 M 1.7092204321289062 -1.1102230246251565e-16 L 1.950546432128906 -1.1102230246251565e-16 L 2.2007284321289062 0.7859699999999998 L 1.9815424321289061 0.7859699999999998 L 1.9339414321289061 0.6320969999999999 L 1.7247184321289062 0.6320969999999999 L 1.6782244321289062 0.7859699999999998 L 1.4579314321289063 0.7859699999999998 L 1.7092204321289062 -1.1102230246251565e-16 M 1.8996244321289062 0.48818699999999987 L 1.8298834321289061 0.21143699999999988 L 1.7568214321289062 0.48818699999999987 L 1.8996244321289062 0.48818699999999987 M 2.364574161621094 -1.1102230246251565e-16 L 2.518447161621094 0.5368949999999999 L 2.670106161621094 -1.1102230246251565e-16 L 2.897041161621094 -1.1102230246251565e-16 L 2.625826161621094 0.7859699999999998 L 2.411068161621094 0.7859699999999998 L 2.1365321616210937 -1.1102230246251565e-16 L 2.364574161621094 -1.1102230246251565e-16 M 3.5280279184570316 0.5977799999999999 L 3.5280279184570316 0.7859699999999998 L 2.9678859184570316 0.7859699999999998 L 2.9678859184570316 -1.1102230246251565e-16 L 3.5180649184570316 -1.1102230246251565e-16 L 3.5180649184570316 0.18818999999999986 L 3.1837509184570316 0.18818999999999986 L 3.1837509184570316 0.2988899999999999 L 3.4693569184570316 0.2988899999999999 L 3.4693569184570316 0.4737959999999999 L 3.1837509184570316 0.4737959999999999 L 3.1837509184570316 0.5977799999999999 L 3.5280279184570316 0.5977799999999999 M 3.6398181621093753 0.7859699999999998 L 3.6398181621093753 -1.1102230246251565e-16 L 3.8556831621093752 -1.1102230246251565e-16 L 3.8556831621093752 0.5977799999999999 L 4.212137162109375 0.5977799999999999 L 4.212137162109375 0.7859699999999998 L 3.6398181621093753 0.7859699999999998 M 0.06752699999999999 1.7933399999999997 L 0.06752699999999999 1.0073699999999999 L 0.406269 1.0073699999999999 Q 0.46383299999999994 1.0073699999999999 0.5125409999999999 1.030617 Q 0.561249 1.053864 0.5966729999999999 1.0931624999999998 Q 0.6320969999999999 1.1324609999999997 0.6514694999999999 1.1811689999999997 Q 0.6708419999999999 1.2298769999999997 0.6708419999999999 1.2796919999999998 Q 0.6708419999999999 1.3494329999999999 0.6381855 1.4114249999999997 Q 0.605529 1.4734169999999998 0.5474114999999999 1.5127154999999997 Q 0.48929399999999995 1.5520139999999998 0.41180399999999995 1.5520139999999998 L 0.283392 1.5520139999999998 L 0.283392 1.7933399999999997 L 0.06752699999999999 1.7933399999999997 M 0.283392 1.3638239999999997 L 0.39741299999999996 1.3638239999999997 Q 0.410697 1.3638239999999997 0.42287399999999997 1.3560749999999997 Q 0.43505099999999997 1.3483259999999997 0.44335349999999996 1.3295069999999998 Q 0.45165599999999995 1.3106879999999999 0.45165599999999995 1.2796919999999998 Q 0.45165599999999995 1.2464819999999999 0.4422465 1.2282164999999998 Q 0.43283699999999997 1.2099509999999998 0.41899949999999997 1.2027554999999999 Q 0.40516199999999997 1.1955599999999997 0.39187799999999995 1.1955599999999997 L 0.283392 1.1955599999999997 L 0.283392 1.3638239999999997 M 0.7682423247070312 1.7933399999999997 L 0.7682423247070312 1.0073699999999999 L 0.9841073247070312 1.0073699999999999 L 0.9841073247070312 1.6051499999999996 L 1.3405613247070312 1.6051499999999996 L 1.3405613247070312 1.7933399999999997 L 0.7682423247070312 1.7933399999999997 M 1.6084796484375 1.0073699999999999 L 1.8498056484375 1.0073699999999999 L 2.0999876484374997 1.7933399999999997 L 1.8808016484375 1.7933399999999997 L 1.8332006484374999 1.6394669999999998 L 1.6239776484375 1.6394669999999998 L 1.5774836484374999 1.7933399999999997 L 1.3571906484375 1.7933399999999997 L 1.6084796484375 1.0073699999999999 M 1.7988836484375 1.4955569999999998 L 1.7291426484374999 1.2188069999999998 L 1.6560806484375 1.4955569999999998 L 1.7988836484375 1.4955569999999998 M 2.392227 1.4069969999999996 L 2.392227 1.7933399999999997 L 2.176362 1.7933399999999997 L 2.176362 1.0073699999999999 L 2.344626 1.0073699999999999 L 2.660121 1.4069969999999996 L 2.660121 1.0073699999999999 L 2.875986 1.0073699999999999 L 2.875986 1.7933399999999997 L 2.704401 1.7933399999999997 L 2.392227 1.4069969999999996 M 3.2380063505859376 1.4069969999999996 L 3.2380063505859376 1.7933399999999997 L 3.0221413505859376 1.7933399999999997 L 3.0221413505859376 1.0073699999999999 L 3.1904053505859373 1.0073699999999999 L 3.5059003505859376 1.4069969999999996 L 3.5059003505859376 1.0073699999999999 L 3.7217653505859376 1.0073699999999999 L 3.7217653505859376 1.7933399999999997 L 3.5501803505859373 1.7933399999999997 L 3.2380063505859376 1.4069969999999996 M 4.428062701171875 1.6051499999999996 L 4.428062701171875 1.7933399999999997 L 3.867920701171875 1.7933399999999997 L 3.867920701171875 1.0073699999999999 L 4.418099701171875 1.0073699999999999 L 4.418099701171875 1.1955599999999997 L 4.083785701171875 1.1955599999999997 L 4.083785701171875 1.3062599999999998 L 4.369391701171875 1.3062599999999998 L 4.369391701171875 1.4811659999999998 L 4.083785701171875 1.4811659999999998 L 4.083785701171875 1.6051499999999996 L 4.428062701171875 1.6051499999999996 M 4.539852944824219 1.7933399999999997 L 4.539852944824219 1.0073699999999999 L 4.900734944824219 1.0073699999999999 Q 4.958298944824218 1.0073699999999999 5.0070069448242185 1.030617 Q 5.055714944824219 1.053864 5.091138944824219 1.0931624999999998 Q 5.126562944824219 1.1324609999999997 5.145935444824218 1.1811689999999997 Q 5.165307944824218 1.2298769999999997 5.165307944824218 1.2796919999999998 Q 5.165307944824218 1.3250789999999997 5.152023944824219 1.3671449999999998 Q 5.138739944824218 1.4092109999999998 5.113278944824218 1.4440814999999998 Q 5.087817944824218 1.4789519999999996 5.052393944824218 1.5044129999999998 L 5.218443944824219 1.7933399999999997 L 4.9815459448242185 1.7933399999999997 L 4.843170944824219 1.5520139999999998 L 4.755717944824219 1.5520139999999998 L 4.755717944824219 1.7933399999999997 L 4.539852944824219 1.7933399999999997 M 4.755717944824219 1.3638239999999997 L 4.891878944824218 1.3638239999999997 Q 4.905162944824219 1.3638239999999997 4.917339944824218 1.3538609999999998 Q 4.929516944824218 1.3438979999999998 4.9378194448242185 1.3250789999999997 Q 4.946121944824219 1.3062599999999998 4.946121944824219 1.2796919999999998 Q 4.946121944824219 1.2520169999999997 4.936712444824218 1.2337515 Q 4.927302944824218 1.2154859999999998 4.913465444824219 1.205523 Q 4.899627944824219 1.1955599999999997 4.886343944824218 1.1955599999999997 L 4.755717944824219 1.1955599999999997 L 4.755717944824219 1.3638239999999997 M 5.706557973632813 1.0073699999999999 L 5.947883973632813 1.0073699999999999 L 6.198065973632812 1.7933399999999997 L 5.978879973632813 1.7933399999999997 L 5.931278973632812 1.6394669999999998 L 5.722055973632813 1.6394669999999998 L 5.675561973632813 1.7933399999999997 L 5.455268973632812 1.7933399999999997 L 5.706557973632813 1.0073699999999999 M 5.896961973632813 1.4955569999999998 L 5.827220973632812 1.2188069999999998 L 5.754158973632812 1.4955569999999998 L 5.896961973632813 1.4955569999999998 M 6.274440325195313 1.7933399999999997 L 6.274440325195313 1.0073699999999999 L 6.490305325195313 1.0073699999999999 L 6.490305325195313 1.7933399999999997 L 6.274440325195313 1.7933399999999997" fill="#382d5e" fill-rule="nonzero"></path></g><g><path d=" M 0.03327075 2.0403883125 L 0.11626875 2.1770488125000003 L 0.19998225 2.0403883125 L 0.22717125 2.0403883125 L 0.12879 2.1999448125 L 0.12879 2.2943908125 L 0.10374749999999999 2.2943908125 L 0.10374749999999999 2.1992293125 L 0.005724 2.0403883125 L 0.03327075 2.0403883125 M 0.3538161474609375 2.2961795625 Q 0.3269848974609375 2.2961795625 0.3051621474609375 2.2854470625000003 Q 0.2833393974609375 2.2747145625000003 0.2675983974609375 2.2562904375 Q 0.2518573974609375 2.2378663125 0.2432713974609375 2.2147914375 Q 0.2346853974609375 2.1917165625 0.2346853974609375 2.1673895625 Q 0.2346853974609375 2.1419893125000002 0.2436291474609375 2.1189144375 Q 0.2525728974609375 2.0958395625 0.2688505224609375 2.0777731875 Q 0.2851281474609375 2.0597068125 0.3069508974609375 2.0491531875 Q 0.3287736474609375 2.0385995625 0.3541738974609375 2.0385995625 Q 0.3810051474609375 2.0385995625 0.4028278974609375 2.0496898125 Q 0.4246506474609375 2.0607800625 0.4402127724609375 2.0793830625000003 Q 0.45577489746093747 2.0979860625 0.4643608974609375 2.1208820625 Q 0.4729468974609375 2.1437780625 0.4729468974609375 2.1677473125 Q 0.4729468974609375 2.1931475625 0.4640031474609375 2.2162224375 Q 0.4550593974609375 2.2392973125 0.4389606474609375 2.2573636875000003 Q 0.4228618974609375 2.2754300625 0.4010391474609375 2.2858048125 Q 0.3792163974609375 2.2961795625 0.3538161474609375 2.2961795625 M 0.2597278974609375 2.1673895625 Q 0.2597278974609375 2.1881390625 0.2665251474609375 2.2072786875 Q 0.2733223974609375 2.2264183125 0.2858436474609375 2.2412649375 Q 0.29836489746093753 2.2561115625 0.3157157724609375 2.2648764375 Q 0.3330666474609375 2.2736413125 0.3538161474609375 2.2736413125 Q 0.3756388974609375 2.2736413125 0.39298977246093747 2.2645186875000003 Q 0.4103406474609375 2.2553960625 0.4226830224609375 2.2401916875000003 Q 0.4350253974609375 2.2249873125 0.44146489746093753 2.2060265625 Q 0.44790439746093746 2.1870658125 0.44790439746093746 2.1673895625 Q 0.44790439746093746 2.1466400625 0.4411071474609375 2.1276793125 Q 0.4343098974609375 2.1087185625 0.4216097724609375 2.0936930625 Q 0.4089096474609375 2.0786675625 0.39173764746093753 2.0700815625 Q 0.3745656474609375 2.0614955625 0.3538161474609375 2.0614955625 Q 0.3323511474609375 2.0614955625 0.31500027246093754 2.0704393125 Q 0.2976493974609375 2.0793830625000003 0.28530702246093753 2.0945874375 Q 0.2729646474609375 2.1097918125 0.2663462724609375 2.1287525625 Q 0.2597278974609375 2.1477133125 0.2597278974609375 2.1673895625 M 0.6271287626953125 2.2961795625 Q 0.5970777626953124 2.2961795625 0.5763282626953125 2.2854470625000003 Q 0.5555787626953125 2.2747145625000003 0.5434152626953125 2.2566481875 Q 0.5312517626953125 2.2385818125 0.5257066376953125 2.2156858125000003 Q 0.5201615126953125 2.1927898125 0.5201615126953125 2.1684628125 L 0.5201615126953125 2.0403883125 L 0.5448462626953124 2.0403883125 L 0.5448462626953124 2.1684628125 Q 0.5448462626953124 2.1881390625 0.5489603876953125 2.2070998125 Q 0.5530745126953125 2.2260605625000003 0.5623760126953125 2.2410860625 Q 0.5716775126953124 2.2561115625 0.5874185126953124 2.2648764375 Q 0.6031595126953124 2.2736413125 0.6267710126953124 2.2736413125 Q 0.6510980126953125 2.2736413125 0.6670178876953125 2.2645186875000003 Q 0.6829377626953125 2.2553960625 0.6920603876953124 2.2403705625 Q 0.7011830126953125 2.2253450625 0.7051182626953125 2.2065631875 Q 0.7090535126953125 2.1877813125000003 0.7090535126953125 2.1684628125 L 0.7090535126953125 2.0403883125 L 0.7340960126953124 2.0403883125 L 0.7340960126953124 2.1684628125 Q 0.7340960126953124 2.1938630625 0.7283720126953125 2.2171168125 Q 0.7226480126953125 2.2403705625 0.7099478876953125 2.2579003125 Q 0.6972477626953124 2.2754300625 0.6768560126953125 2.2858048125 Q 0.6564642626953124 2.2961795625 0.6271287626953125 2.2961795625 M 0.7974195095214844 2.2943908125 L 0.7974195095214844 2.0403883125 L 0.9047445095214843 2.0403883125 Q 0.9212010095214844 2.0403883125 0.9347955095214844 2.0471855625 Q 0.9483900095214843 2.0539828125 0.9585858845214844 2.0656096875000003 Q 0.9687817595214844 2.0772365625 0.9743268845214844 2.0913676875 Q 0.9798720095214843 2.1054988125 0.9798720095214843 2.1201665625 Q 0.9798720095214843 2.1384118125000002 0.9728958845214843 2.1545105625 Q 0.9659197595214843 2.1706093125 0.9532196345214844 2.1816995625 Q 0.9405195095214844 2.1927898125 0.9233475095214844 2.1963673125 L 0.9855960095214844 2.2943908125 L 0.9573337595214844 2.2943908125 L 0.8975895095214844 2.2006603125 L 0.8224620095214844 2.2006603125 L 0.8224620095214844 2.2943908125 L 0.7974195095214844 2.2943908125 M 0.8224620095214844 2.1784798125 L 0.9054600095214844 2.1784798125 Q 0.9204855095214843 2.1784798125 0.9315757595214844 2.1702515625000003 Q 0.9426660095214844 2.1620233125 0.9487477595214844 2.1486076875 Q 0.9548295095214844 2.1351920625000003 0.9548295095214844 2.1201665625 Q 0.9548295095214844 2.1047833125 0.9478533845214844 2.0917254375 Q 0.9408772595214844 2.0786675625 0.9292503845214843 2.0706181875 Q 0.9176235095214844 2.0625688125 0.9033135095214844 2.0625688125 L 0.8224620095214844 2.0625688125 L 0.8224620095214844 2.1784798125 M 1.2993528911132812 2.0625688125 L 1.2088421411132813 2.0625688125 L 1.2088421411132813 2.2943908125 L 1.1837996411132814 2.2943908125 L 1.1837996411132814 2.0625688125 L 1.0932888911132814 2.0625688125 L 1.0932888911132814 2.0403883125 L 1.2993528911132812 2.0403883125 L 1.2993528911132812 2.0625688125 M 1.3408466506347658 2.2943908125 L 1.3408466506347658 2.0403883125 L 1.4481716506347657 2.0403883125 Q 1.4646281506347658 2.0403883125 1.4782226506347658 2.0471855625 Q 1.4918171506347657 2.0539828125 1.5020130256347657 2.0656096875000003 Q 1.5122089006347657 2.0772365625 1.5177540256347657 2.0913676875 Q 1.5232991506347657 2.1054988125 1.5232991506347657 2.1201665625 Q 1.5232991506347657 2.1384118125000002 1.5163230256347657 2.1545105625 Q 1.5093469006347657 2.1706093125 1.4966467756347657 2.1816995625 Q 1.4839466506347658 2.1927898125 1.4667746506347656 2.1963673125 L 1.5290231506347658 2.2943908125 L 1.5007609006347657 2.2943908125 L 1.4410166506347657 2.2006603125 L 1.3658891506347657 2.2006603125 L 1.3658891506347657 2.2943908125 L 1.3408466506347658 2.2943908125 M 1.3658891506347657 2.1784798125 L 1.4488871506347658 2.1784798125 Q 1.4639126506347657 2.1784798125 1.4750029006347658 2.1702515625000003 Q 1.4860931506347659 2.1620233125 1.4921749006347658 2.1486076875 Q 1.4982566506347657 2.1351920625000003 1.4982566506347657 2.1201665625 Q 1.4982566506347657 2.1047833125 1.4912805256347657 2.0917254375 Q 1.4843044006347657 2.0786675625 1.4726775256347657 2.0706181875 Q 1.4610506506347658 2.0625688125 1.4467406506347658 2.0625688125 L 1.3658891506347657 2.0625688125 L 1.3658891506347657 2.1784798125 M 1.6814300657958987 2.2961795625 Q 1.6513790657958987 2.2961795625 1.6306295657958987 2.2854470625000003 Q 1.6098800657958985 2.2747145625000003 1.5977165657958985 2.2566481875 Q 1.5855530657958985 2.2385818125 1.5800079407958987 2.2156858125000003 Q 1.5744628157958986 2.1927898125 1.5744628157958986 2.1684628125 L 1.5744628157958986 2.0403883125 L 1.5991475657958987 2.0403883125 L 1.5991475657958987 2.1684628125 Q 1.5991475657958987 2.1881390625 1.6032616907958985 2.2070998125 Q 1.6073758157958986 2.2260605625000003 1.6166773157958987 2.2410860625 Q 1.6259788157958985 2.2561115625 1.6417198157958985 2.2648764375 Q 1.6574608157958985 2.2736413125 1.6810723157958987 2.2736413125 Q 1.7053993157958987 2.2736413125 1.7213191907958987 2.2645186875000003 Q 1.7372390657958987 2.2553960625 1.7463616907958985 2.2403705625 Q 1.7554843157958986 2.2253450625 1.7594195657958986 2.2065631875 Q 1.7633548157958985 2.1877813125000003 1.7633548157958985 2.1684628125 L 1.7633548157958985 2.0403883125 L 1.7883973157958986 2.0403883125 L 1.7883973157958986 2.1684628125 Q 1.7883973157958986 2.1938630625 1.7826733157958987 2.2171168125 Q 1.7769493157958987 2.2403705625 1.7642491907958986 2.2579003125 Q 1.7515490657958985 2.2754300625 1.7311573157958986 2.2858048125 Q 1.7107655657958987 2.2961795625 1.6814300657958987 2.2961795625 M 2.0223675626220703 2.2722103125 L 2.0223675626220703 2.2943908125 L 1.8517208126220706 2.2943908125 L 1.8517208126220706 2.0403883125 L 2.0191478126220703 2.0403883125 L 2.0191478126220703 2.0625688125 L 1.8767633126220704 2.0625688125 L 1.8767633126220704 2.1541528125 L 2.0009025626220707 2.1541528125 L 2.0009025626220707 2.1752600625 L 1.8767633126220704 2.1752600625 L 1.8767633126220704 2.2722103125 L 2.0223675626220703 2.2722103125 M 2.1679767037353517 2.2943908125 L 2.1679767037353517 2.0403883125 L 2.1930192037353518 2.0403883125 L 2.1930192037353518 2.2943908125 L 2.1679767037353517 2.2943908125 M 2.440577137939453 2.0625688125 L 2.350066387939453 2.0625688125 L 2.350066387939453 2.2943908125 L 2.325023887939453 2.2943908125 L 2.325023887939453 2.0625688125 L 2.234513137939453 2.0625688125 L 2.234513137939453 2.0403883125 L 2.440577137939453 2.0403883125 L 2.440577137939453 2.0625688125 M 2.4820708974609373 2.2943908125 L 2.4820708974609373 2.0403883125 L 2.5071133974609374 2.0403883125 L 2.5071133974609374 2.2943908125 L 2.4820708974609373 2.2943908125 M 2.599407831665039 2.0865380625000003 L 2.599407831665039 2.2943908125 L 2.574365331665039 2.2943908125 L 2.574365331665039 2.0403883125 L 2.5951148316650388 2.0403883125 L 2.7618263316650387 2.2521763125 L 2.7618263316650387 2.0407460625000002 L 2.7868688316650387 2.0407460625000002 L 2.7868688316650387 2.2943908125 L 2.763615081665039 2.2943908125 L 2.599407831665039 2.0865380625000003 M 3.0247627994384763 2.2722103125 L 3.0247627994384763 2.2943908125 L 2.8541160494384763 2.2943908125 L 2.8541160494384763 2.0403883125 L 3.0215430494384763 2.0403883125 L 3.0215430494384763 2.0625688125 L 2.8791585494384764 2.0625688125 L 2.8791585494384764 2.1541528125 L 3.003297799438476 2.1541528125 L 3.003297799438476 2.1752600625 L 2.8791585494384764 2.1752600625 L 2.8791585494384764 2.2722103125 L 3.0247627994384763 2.2722103125 M 3.075566443725586 2.2943908125 L 3.075566443725586 2.0403883125 L 3.1828914437255857 2.0403883125 Q 3.1993479437255856 2.0403883125 3.212942443725586 2.0471855625 Q 3.226536943725586 2.0539828125 3.236732818725586 2.0656096875000003 Q 3.246928693725586 2.0772365625 3.2524738187255857 2.0913676875 Q 3.258018943725586 2.1054988125 3.258018943725586 2.1201665625 Q 3.258018943725586 2.1384118125000002 3.251042818725586 2.1545105625 Q 3.244066693725586 2.1706093125 3.2313665687255857 2.1816995625 Q 3.218666443725586 2.1927898125 3.201494443725586 2.1963673125 L 3.263742943725586 2.2943908125 L 3.2354806937255858 2.2943908125 L 3.1757364437255857 2.2006603125 L 3.100608943725586 2.2006603125 L 3.100608943725586 2.2943908125 L 3.075566443725586 2.2943908125 M 3.100608943725586 2.1784798125 L 3.183606943725586 2.1784798125 Q 3.198632443725586 2.1784798125 3.2097226937255856 2.1702515625000003 Q 3.2208129437255857 2.1620233125 3.226894693725586 2.1486076875 Q 3.232976443725586 2.1351920625000003 3.232976443725586 2.1201665625 Q 3.232976443725586 2.1047833125 3.226000318725586 2.0917254375 Q 3.219024193725586 2.0786675625 3.2073973187255858 2.0706181875 Q 3.1957704437255856 2.0625688125 3.1814604437255856 2.0625688125 L 3.100608943725586 2.0625688125 L 3.100608943725586 2.1784798125 M 3.390395177856445 2.0403883125 L 3.411502427856445 2.0403883125 L 3.517038677856445 2.2943908125 L 3.4905651778564453 2.2943908125 L 3.457652177856445 2.2149703125 L 3.343529927856445 2.2149703125 L 3.310974677856445 2.2943908125 L 3.284143427856445 2.2943908125 L 3.390395177856445 2.0403883125 M 3.4519281778564452 2.1952940625 L 3.400769927856445 2.0697238125 L 3.348896177856445 2.1952940625 L 3.4519281778564452 2.1952940625 M 3.557115761352539 2.2943908125 L 3.557115761352539 2.0403883125 L 3.6644407613525387 2.0403883125 Q 3.6808972613525386 2.0403883125 3.6944917613525385 2.0471855625 Q 3.708086261352539 2.0539828125 3.718282136352539 2.0656096875000003 Q 3.728478011352539 2.0772365625 3.7340231363525387 2.0913676875 Q 3.739568261352539 2.1054988125 3.739568261352539 2.1201665625 Q 3.739568261352539 2.1384118125000002 3.732592136352539 2.1545105625 Q 3.725616011352539 2.1706093125 3.7129158863525387 2.1816995625 Q 3.700215761352539 2.1927898125 3.683043761352539 2.1963673125 L 3.745292261352539 2.2943908125 L 3.7170300113525387 2.2943908125 L 3.6572857613525387 2.2006603125 L 3.582158261352539 2.2006603125 L 3.582158261352539 2.2943908125 L 3.557115761352539 2.2943908125 M 3.582158261352539 2.1784798125 L 3.665156261352539 2.1784798125 Q 3.680181761352539 2.1784798125 3.6912720113525386 2.1702515625000003 Q 3.7023622613525387 2.1620233125 3.7084440113525385 2.1486076875 Q 3.714525761352539 2.1351920625000003 3.714525761352539 2.1201665625 Q 3.714525761352539 2.1047833125 3.707549636352539 2.0917254375 Q 3.700573511352539 2.0786675625 3.6889466363525387 2.0706181875 Q 3.6773197613525386 2.0625688125 3.663009761352539 2.0625688125 L 3.582158261352539 2.0625688125 L 3.582158261352539 2.1784798125 M 3.7853686461181635 2.0403883125 L 3.868366646118164 2.1770488125000003 L 3.952080146118164 2.0403883125 L 3.9792691461181637 2.0403883125 L 3.8808878961181636 2.1999448125 L 3.8808878961181636 2.2943908125 L 3.8558453961181636 2.2943908125 L 3.8558453961181636 2.1992293125 L 3.7578218961181635 2.0403883125 L 3.7853686461181635 2.0403883125 M 4.102333399291991 2.2943908125 L 4.102333399291991 2.0403883125 L 4.207511899291991 2.0403883125 Q 4.223968399291992 2.0403883125 4.237741774291992 2.0471855625 Q 4.251515149291992 2.0539828125 4.261532149291992 2.0656096875000003 Q 4.2715491492919915 2.0772365625 4.277273149291991 2.0913676875 Q 4.282997149291992 2.1054988125 4.282997149291992 2.1201665625 Q 4.282997149291992 2.1409160625 4.273874524291991 2.1593401875000002 Q 4.2647518992919915 2.1777643125 4.248295399291992 2.1892123125 Q 4.231838899291992 2.2006603125 4.209658399291992 2.2006603125 L 4.127375899291992 2.2006603125 L 4.127375899291992 2.2943908125 L 4.102333399291991 2.2943908125 M 4.127375899291992 2.1784798125 L 4.2085851492919915 2.1784798125 Q 4.223610649291992 2.1784798125 4.234700899291991 2.1702515625000003 Q 4.245791149291992 2.1620233125 4.251872899291992 2.1487865625 Q 4.2579546492919915 2.1355498125 4.2579546492919915 2.1201665625 Q 4.2579546492919915 2.1044255625 4.2507996492919915 2.0911888125 Q 4.2436446492919915 2.0779520625 4.232017774291991 2.0702604375 Q 4.220390899291992 2.0625688125 4.206438649291992 2.0625688125 L 4.127375899291992 2.0625688125 L 4.127375899291992 2.1784798125 M 4.328434718261718 2.2943908125 L 4.328434718261718 2.0403883125 L 4.353477218261719 2.0403883125 L 4.353477218261719 2.2722103125 L 4.500154718261719 2.2722103125 L 4.500154718261719 2.2943908125 L 4.328434718261718 2.2943908125 M 4.619288263183593 2.0403883125 L 4.640395513183593 2.0403883125 L 4.745931763183593 2.2943908125 L 4.7194582631835935 2.2943908125 L 4.686545263183594 2.2149703125 L 4.5724230131835935 2.2149703125 L 4.539867763183594 2.2943908125 L 4.513036513183593 2.2943908125 L 4.619288263183593 2.0403883125 M 4.680821263183593 2.1952940625 L 4.629663013183594 2.0697238125 L 4.577789263183593 2.1952940625 L 4.680821263183593 2.1952940625 M 4.811051346679688 2.0865380625000003 L 4.811051346679688 2.2943908125 L 4.786008846679687 2.2943908125 L 4.786008846679687 2.0403883125 L 4.806758346679687 2.0403883125 L 4.973469846679688 2.2521763125 L 4.973469846679688 2.0407460625000002 L 4.9985123466796875 2.0407460625000002 L 4.9985123466796875 2.2943908125 L 4.975258596679687 2.2943908125 L 4.811051346679688 2.0865380625000003 M 5.090802064453125 2.0865380625000003 L 5.090802064453125 2.2943908125 L 5.065759564453124 2.2943908125 L 5.065759564453124 2.0403883125 L 5.086509064453124 2.0403883125 L 5.253220564453125 2.2521763125 L 5.253220564453125 2.0407460625000002 L 5.2782630644531245 2.0407460625000002 L 5.2782630644531245 2.2943908125 L 5.255009314453124 2.2943908125 L 5.090802064453125 2.0865380625000003 M 5.516157032226562 2.2722103125 L 5.516157032226562 2.2943908125 L 5.345510282226561 2.2943908125 L 5.345510282226561 2.0403883125 L 5.512937282226561 2.0403883125 L 5.512937282226561 2.0625688125 L 5.370552782226562 2.0625688125 L 5.370552782226562 2.1541528125 L 5.4946920322265616 2.1541528125 L 5.4946920322265616 2.1752600625 L 5.370552782226562 2.1752600625 L 5.370552782226562 2.2722103125 L 5.516157032226562 2.2722103125 M 5.566960676513671 2.2943908125 L 5.566960676513671 2.0403883125 L 5.674285676513671 2.0403883125 Q 5.690742176513671 2.0403883125 5.704336676513671 2.0471855625 Q 5.717931176513671 2.0539828125 5.728127051513671 2.0656096875000003 Q 5.738322926513671 2.0772365625 5.7438680515136715 2.0913676875 Q 5.749413176513671 2.1054988125 5.749413176513671 2.1201665625 Q 5.749413176513671 2.1384118125000002 5.742437051513671 2.1545105625 Q 5.735460926513671 2.1706093125 5.7227608015136715 2.1816995625 Q 5.710060676513671 2.1927898125 5.692888676513671 2.1963673125 L 5.755137176513671 2.2943908125 L 5.726874926513672 2.2943908125 L 5.667130676513671 2.2006603125 L 5.592003176513671 2.2006603125 L 5.592003176513671 2.2943908125 L 5.566960676513671 2.2943908125 M 5.592003176513671 2.1784798125 L 5.675001176513671 2.1784798125 Q 5.690026676513671 2.1784798125 5.701116926513671 2.1702515625000003 Q 5.7122071765136715 2.1620233125 5.718288926513671 2.1486076875 Q 5.724370676513671 2.1351920625000003 5.724370676513671 2.1201665625 Q 5.724370676513671 2.1047833125 5.717394551513671 2.0917254375 Q 5.710418426513671 2.0786675625 5.698791551513671 2.0706181875 Q 5.687164676513671 2.0625688125 5.672854676513671 2.0625688125 L 5.592003176513671 2.0625688125 L 5.592003176513671 2.1784798125" fill="#382d5e" fill-rule="nonzero"></path></g><g clip-path="url(#SvgjsClipPath1001)"><g clip-path="url(#bd3f33274-a428-4a4a-91b6-e3291184b6fa745422c7-73f9-4908-96c2-d93e1b772f80)"><path d=" M -3.831296107340508 1.3050357404559787 C -3.835713425546878 1.2004129033980673 -3.822430248916586 1.0957953276986707 -3.792006910989481 0.9955961698002354 C -3.8156636434368467 0.9782399741353351 -3.838666546595466 0.9602299491816875 -3.8602429131240936 0.9409717046767969 C -3.904552298290562 1.0713187686395362 -3.9217256584391977 1.209352937843649 -3.910706646410057 1.346583619804493 C -3.8850289870702026 1.3316644242158275 -3.8585191813628534 1.3171613018109098 -3.831296107340508 1.3050357404559787" fill="#382d5e" transform="matrix(1,0,0,1,0,0)" fill-rule="nonzero"></path></g><g clip-path="url(#bd3f33274-a428-4a4a-91b6-e3291184b6fa745422c7-73f9-4908-96c2-d93e1b772f80)"><path d=" M -2.1463185912150804 0.7186697465030596 C -2.120997566032724 0.7069602583318761 -2.0954982237716187 0.6957857213969396 -2.0697016863792657 0.685324452776999 C -2.2532493994382228 0.423911615330984 -2.556982823573997 0.25266778070570683 -2.900005444060799 0.25266778070570683 C -3.1651035011342925 0.25266778070570683 -3.4067231428391698 0.3549623448813757 -3.5875366606906427 0.5221048866954263 C -3.559005928090805 0.5322689601841184 -3.530891268674715 0.5438001312765531 -3.503370999521121 0.5566389609464801 C -3.3351900840233757 0.41295008646607334 -3.1212096279166746 0.3340696937213905 -2.900005444060798 0.3342181247202435 C -2.5905658734050565 0.3342181247202436 -2.316017011157866 0.4859065197093819 -2.1463185912150804 0.7186697465030596" fill="#382d5e" transform="matrix(1,0,0,1,0,0)" fill-rule="nonzero"></path></g><g clip-path="url(#bd3f33274-a428-4a4a-91b6-e3291184b6fa745422c7-73f9-4908-96c2-d93e1b772f80)"><path d=" M -2.049195222323132 1.7658665109696106 C -2.070355515668012 1.7662825841533585 -2.0915158090128916 1.7658665109696106 -2.1126761023577716 1.7650938036283654 C -2.2781543514368314 2.0255556166543855 -2.5691083849289282 2.19893925622465 -2.899946005034549 2.19893925622465 C -3.00717400838894 2.19893925622465 -3.110122401853355 2.1806320361397544 -3.20605699022031 2.1471678643611947 C -3.228643820195182 2.1497237424899303 -3.2512306501700534 2.1515663523036697 -3.2737580411186755 2.152755132828663 C -3.3088854388884394 2.1568291470496845 -3.344199392546593 2.159090827227791 -3.3795595078430742 2.1595311818211242 C -3.2322279996200476 2.239090340279095 -3.0673861519449472 2.2806634174905005 -2.8999460050345496 2.280489600239187 C -2.5226270664016925 2.280489600239187 -2.192859348768566 2.073344593759114 -2.0182869286733074 1.7668175353896052 C -2.028569880214499 1.766460901232107 -2.0389122707819403 1.7662825841533585 -2.049195222323132 1.7658665109696106" fill="#382d5e" transform="matrix(1,0,0,1,0,0)" fill-rule="nonzero"></path></g><g clip-path="url(#bd3f33274-a428-4a4a-91b6-e3291184b6fa745422c7-73f9-4908-96c2-d93e1b772f80)"><path d=" M -4.108876359926431 0.8906268494433327 C -4.143885946387482 0.8736272879359293 -4.180262630452275 0.8569249215597743 -4.214796704703329 0.8382016282911307 C -4.29747639021661 1.109956856304587 -4.293731731562881 1.4038828411091668 -4.204632631214637 1.6767079715951172 C -4.162819555656153 1.6772905595660523 -4.121034137534729 1.6791538561995503 -4.079335163880352 1.6822952400625848 C -4.172594996066069 1.4267074271890376 -4.18293738663351 1.1482950282356188 -4.108876359926431 0.8906268494433327" fill="#382d5e" transform="matrix(1,0,0,1,0,0)" fill-rule="nonzero"></path></g><g clip-path="url(#bd3f33274-a428-4a4a-91b6-e3291184b6fa745422c7-73f9-4908-96c2-d93e1b772f80)"><path d=" M -1.6467335755866683 1.8743427338752445 C -1.6867954792789406 1.8766608558989812 -1.7288783098637017 1.877195807135228 -1.7685241403722265 1.8688149044340259 C -1.9041045592477062 2.1145358389501303 -2.1357384445426404 2.3195410404852157 -2.4152207459685524 2.4379435807745424 C -2.875813760377186 2.61970812304601 -3.4243765336353196 2.5041586560166667 -3.7732836177208373 2.15852071837488 C -3.785693691741422 2.163140174643448 -3.7978731048886014 2.168357089395416 -3.8097791798381295 2.1741531822785407 C -3.834862448915487 2.186516499738471 -3.8595296448090974 2.199414768434648 -3.8843157187552064 2.2119564029733265 C -3.622367930072945 2.488407314060506 -3.2471293573588262 2.639620196839647 -2.8699887358047187 2.639620196839647 C -2.700944145150679 2.639620196839647 -2.531424042286642 2.60918741539982 -2.3717113787537993 2.5460631695226787 L -2.3704631592025565 2.5455282182864316 C -2.0477092466668902 2.408996774990957 -1.7827895066721453 2.165177889314842 -1.6393631363317103 1.8738077826389974 L -1.6467335755866683 1.8743427338752445" fill="#382d5e" transform="matrix(1,0,0,1,0,0)" fill-rule="nonzero"></path></g><g clip-path="url(#bd3f33274-a428-4a4a-91b6-e3291184b6fa745422c7-73f9-4908-96c2-d93e1b772f80)"><path d=" M -1.7175848948762655 0.4814485927406573 C -1.943334316572483 0.1375938258863607 -2.321128767415337 -0.09451557161857066 -2.728226658199274 -0.13945147546331538 C -3.165007995048436 -0.1871957465836759 -3.598831067112216 -0.02687030720474931 -3.8995915485013697 0.2934429527129754 C -3.875102669686509 0.30913485564288634 -3.8516242543178922 0.32512395370404545 -3.8296912536317667 0.3386166126627188 L -3.7995556673231885 0.35733990593136244 C -3.5242689814797803 0.07401007390803072 -3.1337080846069654 -0.06654272456790122 -2.741006048842952 -0.023604813302723293 C -2.369155500625064 0.01746755383579318 -2.0238741971407754 0.22907048728459112 -1.8167886296869518 0.5427302288040592 C -1.7809468968584055 0.526206179506653 -1.744332456688614 0.5113464229442376 -1.7073019433350738 0.4976160078805656 C -1.7107494068575542 0.49220705649184615 -1.7140779923275353 0.48679810510312693 -1.7175848948762655 0.4814485927406573" fill="#382d5e" transform="matrix(1,0,0,1,0,0)" fill-rule="nonzero"></path></g><g clip-path="url(#bd3f33274-a428-4a4a-91b6-e3291184b6fa745422c7-73f9-4908-96c2-d93e1b772f80)"><path d=" M -2.1536295914437886 0.8888436786558427 C -2.1519058596825484 0.8880115322883475 -2.0337410754982193 0.8310095061149212 -1.914149754683899 0.7781682117789714 C -1.854413533302988 0.7516584060716218 -1.7943801167908293 0.7262185028367665 -1.7489687007360875 0.7082679169093684 C -1.703616723707595 0.6901984529294711 -1.6727084300577704 0.6799155013882796 -1.6733028203202673 0.6775973793645427 C -1.673837771556514 0.6752198183145561 -1.7062914798888298 0.681044842887023 -1.7534266277048118 0.6954290872394413 C -1.8108991289413647 0.7132023321634597 -1.8676836302980147 0.7331284578140997 -1.9236599988838528 0.7551653086203549 C -2.0059916877791624 0.7872031215937534 -2.0875830020582944 0.8211119723908367 -2.168370469953698 0.8568654825335211 C -2.1719368115286843 0.8585297752685148 -2.1714612993186875 0.8670295560222165 -2.1673600065074603 0.8758265319071665 C -2.163258713696234 0.8846235077921167 -2.157136493992519 0.8903890933383338 -2.1536295914437886 0.8888436786558427" fill="#382d5e" transform="matrix(1,0,0,1,0,0)" fill-rule="nonzero"></path></g><g clip-path="url(#bd3f33274-a428-4a4a-91b6-e3291184b6fa745422c7-73f9-4908-96c2-d93e1b772f80)"><path d=" M -1.0795663871123908 1.6535861903839981 C -1.0871745824723478 1.6497820927040197 -1.2072414154966657 1.605856652305519 -1.3556606640420723 1.5520048945233251 C -1.3056130039398561 1.5190756739810123 -1.284036637411229 1.477884428789996 -1.2844527105949766 1.436217671388983 C -1.2612714903576085 1.4241515490603016 -1.2474221972414372 1.4079841339203931 -1.2511668558951659 1.3948481091192177 C -1.2549115145488945 1.38218759652804 -1.2741697590537848 1.375827620719326 -1.2990747110523935 1.377373035401817 C -1.3015404285326118 1.3723872014084684 -1.3042176161909809 1.367508770564329 -1.3070989795960979 1.3627510349444 C -1.3340842975134444 1.3187067164934005 -1.4309699103003943 1.3398670098382803 -1.5222682546198758 1.3726179133018444 C -1.5140062299711725 1.3537757419807013 -1.5118664250261848 1.3331503998720684 -1.5195340594123912 1.311217399185943 C -1.5015240344587437 1.2998051061460079 -1.4913005219438018 1.2860152520560864 -1.4945696683875331 1.274602959016151 C -1.4989681563300081 1.2594460073224871 -1.5255968400898565 1.253323787618772 -1.5575155971859251 1.2589110560862402 C -1.6519642098966387 1.185919931851655 -1.8423474109743072 1.3103852528184479 -1.903153534827712 1.3538351810069509 L -1.9452363654124727 1.338678229313287 C -1.9452363654124727 1.338678229313287 -1.021018946256473 0.8963329959633 -1.082538338424874 0.6766463549445478 C -1.1111285100509614 0.5795824250788493 -1.257289075598881 0.5901625717512893 -1.3431190295033932 0.6053789624712027 C -1.3702826644994892 0.5854074496513162 -1.4510603011727805 0.5406498628853205 -1.5981718911406948 0.573103571217636 C -1.7193086266375066 0.5999105720562337 -2.0463421490631486 0.7425642350554233 -2.2880212297942757 0.8638198486047346 C -2.4428004541483963 0.8467014090448319 -2.6663506318733767 1.0164592680138675 -2.6663506318733767 1.0164592680138675 L -2.864817540520999 0.9229616797231486 C -2.782256733060218 0.8565088483760259 -2.728761609435522 0.7795353093827133 -2.743324170866689 0.7150439659018295 C -2.728821048461772 0.7011946727856582 -2.7220449994693103 0.6865726723282415 -2.7270973167005312 0.6763491598132993 C -2.732327951010502 0.6655906960621103 -2.7493869515441545 0.6622621105921296 -2.7706066839152843 0.6660662082721078 C -2.7722662451593667 0.6643378064970942 -2.773970747202135 0.6626531242455209 -2.7757184401727555 0.6610138910408863 C -2.879023467794668 0.5644254733851853 -3.125754865757017 0.7192641367655557 -3.1960712338103674 0.7669342358177849 L -4.39079566142858 0.20398721820723287 C -4.39079566142858 0.20398721820723287 -4.502124957594198 0.16689726582744369 -4.554847373877648 0.2469616341857387 C -4.607569790161099 0.3270260025440339 -4.543137885706464 0.3856328824262011 -4.543137885706464 0.3856328824262011 L -3.1753864526754843 1.354667327374446 C -3.2373219180276323 1.3996032312191908 -3.398223362085469 1.5163414787735277 -3.4514212905789163 1.5554523580458057 C -3.5178146828997887 1.6042517985967781 -3.644776442969068 1.6042517985967781 -3.6662339314451957 1.479310965419988 C -3.6877508589475734 1.354310693216948 -3.746298299803491 1.3151998139446703 -3.826362668161786 1.3503877174844705 C -3.9064270365200815 1.3855756210242707 -3.927943964022459 1.4636785015163267 -3.927943964022459 1.567161846216989 L -3.927943964022459 1.8210259273292966 L -4.345859757583835 1.7781109503770405 C -4.345859757583835 1.7781109503770405 -4.420099101369663 1.7605169986071405 -4.427885613808369 1.8171623906230687 C -4.435731565273324 1.8737483436127471 -4.369338172952452 1.8874787586764197 -4.369338172952452 1.8874787586764197 L -3.9943373563433324 2.0051680306507507 L -3.9943373563433324 2.0339365193555876 C -3.9943373563433324 2.0339365193555876 -4.043136796894305 2.045646007526771 -4.031427308723122 2.074949447467854 C -4.023165284074419 2.095574789576487 -3.906070402362584 2.0687083497116396 -3.8131077653081116 2.0434467635555333 C -3.6652829070252015 2.066568544766652 -3.421939533559084 2.1028857898051956 -3.3205959938034098 2.108116424115166 C -3.1702152573917637 2.1159623755801213 -3.193634233734131 2.0495689832592485 -3.236608649712637 2.0300729826493593 C -3.267279187257463 2.016045372454439 -3.3787868005018296 1.9701584441896998 -3.4399495585127315 1.945134614138592 C -3.2480209427525724 1.8921744417501425 -2.9770978611066115 1.8061661707668812 -2.6787139493333063 1.6697536055239062 L -1.219901928087844 1.7620624132896316 C -1.219901928087844 1.7620624132896316 -1.1059573147672408 1.7693139744920905 -1.0591193620825075 1.729787022036065 C -1.012221970371523 1.69020063055379 -1.0591193620825066 1.6638691419251899 -1.0795663871123908 1.6535861903839981 M -1.7277489683649585 0.9856104133902928 C -1.7356543588561637 0.9893550720440216 -2.2032017393360075 1.2079718105902795 -2.2045093979135 1.205415932461544 C -2.2056981784384933 1.202800615306559 -1.740171724851138 0.9798448278440754 -1.7322068953336829 0.9761001691903468 C -1.7243015048424777 0.972355510536618 -1.2492648070551766 0.7501724304153803 -1.2480760265301836 0.7527877475703653 C -1.2468278069789407 0.7554030647253507 -1.719724699821254 0.9818657547365641 -1.7277489683649585 0.9856104133902928 M -1.4311482273791434 0.8758265319071665 C -1.4285923492504082 0.8810571662171367 -1.7619264084585144 1.0485563421886852 -1.7675136769259825 1.0513499764224192 C -1.773100945393451 1.0540841716299036 -2.1053056631028135 1.210587127745265 -2.1078021022052993 1.205415932461544 C -2.1103579803340344 1.200125859125324 -1.7823734334883978 1.0351825612825112 -1.77672672599468 1.0324483660750265 C -1.771080018500962 1.0297141708675424 -1.4337041055078785 0.8706553366234457 -1.4311482273791434 0.8758265319071665 M -1.7895655556646073 0.9423982413067882 C -1.7815412871209029 0.9387130216793091 -1.3065640283598512 0.7165299415580713 -1.3053158088086083 0.7191452587130565 C -1.3040675892573654 0.7217605758680417 -1.777083360152178 0.9482232658792551 -1.7851076286958825 0.951967924532984 C -1.7930130191870877 0.9557125831867124 -2.2605603996669315 1.1743293217329704 -2.2618086192181743 1.1717140045779855 C -2.263056838769417 1.1690986874230003 -1.797470946155812 0.9462023389867666 -1.7895655556646073 0.9423982413067882 M -2.229414349912108 0.929083899426864 C -2.2491481066269965 0.9347900459468315 -2.2665637413181474 0.9343739727630838 -2.268406351131887 0.9281328750068691 C -2.2702489609456262 0.9218323382244049 -2.2558052775669584 0.9120843379194603 -2.2361309598783206 0.9063187523732432 C -2.2163972031634325 0.9005531668270259 -2.198981568472281 0.9009692400107736 -2.197138958658542 0.9072697767932378 C -2.1952963488448023 0.9135703135757021 -2.20979947124972 0.9233183138806467 -2.229414349912108 0.929083899426864 M -1.768464701345977 0.9621914370479259 C -1.760559310854772 0.958446778394197 -1.2855820520937202 0.7362042592467097 -1.2842743935162275 0.7388790154279443 C -1.2830856129912345 0.7414943325829295 -1.7560419448597977 0.9678975835678933 -1.7640067743772523 0.9717016812478718 C -1.7719716038947069 0.9754463399016005 -2.239518984374551 1.1941225174741084 -2.240767203925794 1.1914477612928733 C -2.2420154234770373 1.1888324441378881 -1.7764889698896815 0.9659360957016545 -1.768464701345977 0.9621914370479259 M -1.6333003556542454 0.6043684990249585 C -1.4640180088952066 0.5634150099389411 -1.4008343239918157 0.5887360351212971 -1.3461504198421266 0.6239239386610975 C -1.3461504198421266 0.6239239386610975 -1.302819369706122 0.6160779871961417 -1.2727432224237933 0.6239239386610975 C -1.2727432224237933 0.6239239386610975 -1.9613443415261314 0.8616206046334969 -2.1840029338573665 0.9790721205028299 C -2.1840029338573665 0.9790721205028299 -2.219131398370917 0.9642718029666637 -2.1800205190986395 0.9454296316455209 C -2.141028517878861 0.926587460324378 -2.163555908827483 0.8790956783508976 -2.225015861969634 0.8934799227033161 C -2.225015861969634 0.8934799227033161 -2.234110032985832 0.8777880197734051 -2.2618086192181748 0.8679805804422107 C -2.2618086192181748 0.8679805804422107 -1.8025232633870338 0.6453814271372251 -1.6333003556542454 0.6043684990249585 M -2.3104891817166484 0.9311048263193522 C -2.307284139266529 0.9205475893940906 -2.3011898769800863 0.9110973651053154 -2.2928952299467484 0.9038223132707575 C -2.2849830510311695 0.8968869195331641 -2.275165161742007 0.8924957960536228 -2.2647211315044085 0.8912212397058288 C -2.2563996678294553 0.8903890933383336 -2.2511690335194854 0.8921722641258234 -2.2511690335194854 0.8934799227033161 C -2.2511690335194854 0.8950847764120569 -2.256161911724457 0.8962141179108005 -2.2626407655856697 0.8991860692232836 C -2.2702809831109363 0.902596598313042 -2.2770032770429074 0.9077707275818925 -2.2822556442480586 0.9142835818906978 C -2.2871920032517004 0.9204792026771671 -2.2904287903703784 0.9278541606690918 -2.291647010395505 0.9356816313405762 C -2.2925385957892503 0.9419821681230407 -2.291884766500504 0.9462023389867666 -2.2919442055267534 0.9464400950917651 C -2.2918847665005035 0.9466778511967637 -2.2923008396842515 0.9509574610867395 -2.291112059159258 0.9570796807904547 C -2.2896039722000388 0.9647256677921248 -2.2861434593440677 0.9718514575783841 -2.281066863723065 0.9777644619253372 C -2.275705355758754 0.9839941784714841 -2.2689421975363446 0.9888628375532791 -2.261333107008177 0.9919703891990066 C -2.2549136921732136 0.9947640234327408 -2.249920813968242 0.9957744868789851 -2.249920813968242 0.997319901561476 C -2.2498613749419922 0.9986869991652183 -2.2549731311994634 1.0005890480052075 -2.2631757168219164 0.999994657742711 C -2.273479327762261 0.9990946227576567 -2.283274583746371 0.9951185357619923 -2.291290376238007 0.9885823647027756 C -2.2997402924557147 0.9817306986543921 -2.306136684648423 0.9726811405682463 -2.3097759134016522 0.9624291931529243 C -2.3127478647141353 0.9537510953204738 -2.312866742766634 0.9473316804855101 -2.3129856208191333 0.946975046328012 C -2.312926181792884 0.9465589731442647 -2.313104498871633 0.9400206802568016 -2.3104891817166475 0.9311048263193524 M -2.6585641194346703 1.0486752202411844 C -2.6298550697560836 1.0175291704863614 -2.6062577763349672 1.0005890480052078 -2.5718425801364133 0.9762190472428462 C -2.5396154670891415 0.9533546890844937 -2.5044977108019957 0.9348663996333781 -2.4674082110157562 0.9212379479619084 C -2.446663990854624 0.9139863867594495 -2.4254442584834948 0.9073292158194874 -2.404462282217364 0.9022768985882661 C -2.388532623182454 0.8984728009082876 -2.3609529150026107 0.8934204836770663 -2.330460694536534 0.8934204836770663 C -2.35055108540892 0.9118465818144619 -2.3738511836987874 0.9281328750068691 -2.3948925989911682 0.9461428999605168 C -2.423727119766369 0.9706570596957473 -2.4561646968228272 0.9905847182829661 -2.491064943463122 1.0052252920526814 C -2.524647993294181 1.0194312193263506 -2.5817688975201065 1.0301302440512898 -2.603880215284981 1.0613951718586123 C -2.6284285331260913 1.095929246109666 -2.5802829218638648 1.1110267587770801 -2.5535947990777665 1.110194612409585 C -2.58824775138132 1.1199426127145296 -2.6175511913224034 1.1244005396832544 -2.6507776069959643 1.117921685822041 C -2.666112875768377 1.1148902954833082 -2.68673821787701 1.1115617100133273 -2.685430559299518 1.0930761728496823 C -2.6844795348795225 1.0799995870747565 -2.6669450221358724 1.057769391257383 -2.6585641194346703 1.0486752202411846 M -2.584384214675091 1.2331739577201364 C -2.5335638472316298 1.210706005797764 -2.4845860896019087 1.1837206878804174 -2.4830406749194167 1.1827696634604226 C -2.4813763821844264 1.1819375170929274 -2.430377697662216 1.157032565094319 -2.383004793741235 1.1264809056019927 C -2.35928862226762 1.1113833929345784 -2.3365234752139994 1.0949782216896717 -2.319702230785345 1.0823177090984935 C -2.3028809863566906 1.0695977574810658 -2.2919442055267525 1.0607413425698662 -2.290874303054258 1.06181124504236 C -2.289923278634264 1.0628811475148539 -2.2990174496504623 1.0737584893185421 -2.314412157449125 1.0885588068547078 C -2.333413494940933 1.1065425356222534 -2.353523509342235 1.1233174242393318 -2.3746238910400326 1.1387847840356726 C -2.420629697357272 1.1730216631554782 -2.471628381879482 1.2005419323090718 -2.4732332355882227 1.2014335177028166 C -2.5075731576944884 1.2184615975649646 -2.5427905380819427 1.2336596332701983 -2.5787375071813754 1.246963811810059 C -2.631400484438574 1.2668164465774452 -2.6855494373520163 1.2802496665098688 -2.6863815837195117 1.2771588371448865 C -2.687035413008258 1.274602959016151 -2.634966826013554 1.2562362999050054 -2.584384214675091 1.2331739577201364 M -2.3609529150026107 1.3197766189658944 C -2.3601802076613647 1.3210248385171373 -2.3719491348587978 1.3294057412183395 -2.3907913061799406 1.3399858878907798 C -2.413917949451787 1.3527243659082122 -2.437385144768418 1.3648345486265079 -2.4611671132595454 1.3763031329293258 C -2.496462323413907 1.3933739077677614 -2.531990400857813 1.4099589612092276 -2.5677412873252465 1.4260535979003193 C -2.603538047518841 1.4405169135948952 -2.639501068792503 1.4545652783789313 -2.6756231199683214 1.4681958675113003 C -2.7286427313830215 1.4882268193574373 -2.7816623427977203 1.5070689906785804 -2.782791684296464 1.5043347954710962 C -2.7838615867689582 1.5016600392898611 -2.7328629022467474 1.4780033068424958 -2.6813292664882904 1.4544654524476293 L -2.576003311973889 1.4066764753429009 L -2.4672298939370068 1.3626915959181507 L -2.3944170867811705 1.3326154486358213 C -2.374623891040033 1.3244128630133682 -2.361666183317607 1.3186472774671507 -2.3609529150026107 1.3197766189658944 M -2.747544341730414 1.4352666469689885 L -2.642158948189763 1.3875371088905095 L -2.533385530152881 1.3435522294657591 L -2.4606321620232943 1.3134166431571805 C -2.440779527255907 1.305214057534727 -2.427821819533481 1.2993890329622604 -2.4271085512184847 1.3005778134872537 C -2.4263952829034885 1.301885472064746 -2.4381642101009215 1.3102663747659484 -2.457006381422065 1.3207870824121386 C -2.480099421240392 1.333550850720466 -2.503547514786531 1.3456614045300108 -2.5273227494754082 1.3571043274506787 C -2.562621655056968 1.374228487479315 -2.598170022122761 1.390833577557985 -2.6339563625673224 1.4069142314479055 C -2.63568009432855 1.4076274997628955 -2.6887591447694987 1.428966110186524 -2.741778756184197 1.4489970620326602 C -2.794798367598896 1.4690874529050464 -2.847877418039844 1.4878107461736896 -2.8489473205123383 1.485135989992455 C -2.8500172229848326 1.48246123381122 -2.7990779774888717 1.4588045013638546 -2.747544341730414 1.435266646968988 M -2.787725123475186 0.6822336234120163 C -2.7691207082590417 0.673674403632065 -2.75176451259414 0.6715345986870769 -2.749030317386656 0.6774785013120435 C -2.7462961221791717 0.6834224039370096 -2.759194390875348 0.6951913311344426 -2.777798806091493 0.7038099899406438 C -2.796403221307637 0.7123692097205951 -2.813699977946289 0.714509014665583 -2.8164936121800226 0.7085651120406167 C -2.8192278073875072 0.7026212094156505 -2.8063295386913305 0.6907928431919679 -2.7877251234751865 0.6822336234120163 M -2.8859183948396288 0.7247919662067746 C -2.8856211997083805 0.714330697586834 -2.8818765410546514 0.7007191605756613 -2.874090028615946 0.6899012577982226 C -2.8665412722822383 0.6788455989157853 -2.8554856133998014 0.6712374035558286 -2.8466291984886016 0.6680276961383469 C -2.8376539055249026 0.6646991106683657 -2.8313533687424384 0.6649963057996142 -2.83105617361119 0.6663039643771067 C -2.830640100427442 0.6678493790595981 -2.836049051816162 0.670286379135834 -2.8427062227561244 0.6752198183145559 C -2.850586158011042 0.6810706793146297 -2.8569628207533375 0.6887104509707349 -2.8613106379722684 0.6975094531581794 C -2.8654109501619898 0.7059470189271428 -2.867215084422911 0.715316216168518 -2.8665412722822383 0.7246730881542751 C -2.865946882019742 0.7322218444879822 -2.8640448331797526 0.7370958446404545 -2.8640448331797526 0.737333600745453 C -2.8638665161010035 0.7376307958767014 -2.8631532477860078 0.7426831131079226 -2.8599435403685263 0.7493997230741345 C -2.855977753503283 0.7577414342496891 -2.849890111786472 0.7648949256946962 -2.842290149572376 0.7701439432352666 C -2.8343536646878484 0.775642995479231 -2.825229062517625 0.7791869257864164 -2.8156614658125276 0.7804863338027079 C -2.807518319216324 0.7816156753014514 -2.801693294643857 0.7811996021177039 -2.801336660486359 0.782745016800195 C -2.800980026328861 0.7839932363514379 -2.806270099665081 0.7872623827951695 -2.815542587760028 0.7886889194251612 C -2.8272238423709988 0.7902479666385809 -2.8391045194737887 0.788281652483938 -2.8496605888273345 0.7830422119314433 C -2.860792972373901 0.7777233230778513 -2.8702056581765216 0.7693816649814373 -2.87682422382343 0.7589694063003303 C -2.8824114922908985 0.7502318694416297 -2.8841352240521387 0.7432180643441695 -2.884313541130888 0.7428614301866716 C -2.8843729801571376 0.7423859179766743 -2.8863939070496256 0.7353126738529643 -2.8859183948396288 0.7247919662067741 M -2.844132759386116 0.8639981656834836 C -2.8306401004274426 0.8525264336172986 -2.8222591977262406 0.844204969942346 -2.821129856227497 0.8450965553360907 C -2.8199410757025034 0.8459881407298357 -2.8264199295637167 0.8563305312972771 -2.838426612866148 0.8698231902559503 C -2.8532609872338597 0.8863518652131692 -2.8694228822630405 0.9016390697364651 -2.8867505412071237 0.9155318014419405 C -2.912570249390294 0.9362995869985595 -2.9401106536189063 0.9548321911437341 -2.969073592562908 0.9709289739066269 C -2.9991836798762863 0.9857634464286547 -3.0303804191221597 0.9982818831961071 -3.062392863774877 1.0083755604439135 C -3.109349694512109 1.0233541950588283 -3.157435866748086 1.0310218294450346 -3.1579708179843333 1.0281093171588012 C -3.1586246472730792 1.025375121951317 -3.1120838897195937 1.012655170333889 -3.067385741979847 0.9943479502489931 C -3.0224498381351026 0.9766945594528433 -2.980188690471593 0.9530972660317276 -2.9788215928678508 0.9522651196642322 C -2.9774544952641087 0.951551851349236 -2.934539518311852 0.9307481921618543 -2.895606956118324 0.9035845571657588 C -2.876110955508434 0.8902107762595848 -2.8575659793185393 0.8755887758021679 -2.844132759386116 0.8639981656834836 M -3.0598369856461414 1.5986050911030603 C -3.1347301587207155 1.6475234097065328 -3.4929691699274303 1.8446826597766623 -3.6772895903276335 1.829466269056749 C -3.619455417786712 1.7927329508344574 -3.482091828123742 1.7060114115362 -3.343242262804531 1.6225590186816743 C -3.3301656770296053 1.6147130672167185 -3.3171485302809294 1.6068671157517636 -3.304131383532253 1.5991994813655572 L -3.043669570506233 1.45078023282015 L -2.9895206175927904 1.485135989992455 C -2.9895206175927904 1.485135989992455 -2.977870568447857 1.5450505284521145 -3.0598369856461414 1.5986050911030603 M -3.885028987070203 0.4864414709456285 C -3.890319060406423 0.48388559281689303 -4.04741640678428 0.4069714928498299 -4.202373948217151 0.3290469294365227 C -4.24112819333193 0.3096103678528829 -4.27976356039421 0.28999548919049445 -4.3157241712752565 0.27133163494810053 C -4.333674757202654 0.2619997078269035 -4.351209269946304 0.25290553681070527 -4.367257807033713 0.24363304871575775 C -4.38211012152021 0.2353928229552279 -4.398121019073864 0.2294413378820923 -4.414749589007194 0.22597965791960795 C -4.439844050689251 0.22082071763973088 -4.465852973728091 0.2223373924268658 -4.4901777133180145 0.23037814586208316 C -4.507831104114164 0.23620317043455008 -4.516806397077864 0.24232539013826526 -4.517222470261611 0.2416121218232693 C -4.517697982471608 0.241136609613272 -4.509317079770406 0.23370673133206432 -4.491604249948007 0.22639573110335576 C -4.474129176230606 0.2191441699008969 -4.446252272919515 0.2124869989609347 -4.413263613350952 0.21789595034965392 C -4.3956054488977605 0.22087772951771545 -4.378519788718058 0.22659300316937658 -4.36262156298624 0.23483607283080776 C -4.346156952715083 0.24351417066325853 -4.328681878997682 0.25195451239071054 -4.310493536965286 0.26081092730191024 L -4.195835655329687 0.31567314853034856 L -3.8759348160540044 0.4674804215719861 C -3.8654735474340636 0.4728893729607053 -3.23761911315888 0.7795947484089629 -3.239996674208867 0.7845876266139347 C -3.242611991363852 0.7901154560551533 -3.8746271574765117 0.4918504223343475 -3.885028987070203 0.4864414709456283 M -3.203382234039075 0.8406980673936157 C -3.1993403802540983 0.8165063837100033 -3.1790122332767137 0.804024188197574 -3.172652257467999 0.7989124319401033 C -3.128310743885751 0.7679446992640291 -3.093063401319702 0.741018820372932 -3.0419458387449922 0.7217011368417918 C -3.0017650570002203 0.706544185148128 -2.96134651915045 0.687167062590738 -2.918253225119445 0.68686986745949 C -2.9488643236380208 0.6912089163757151 -2.9699057389304016 0.7253863564692709 -2.988034641936549 0.7469627229978983 C -3.012226325620161 0.7759095287814839 -3.049078521894952 0.7872029437689199 -3.0846824986184993 0.7978425294676095 C -3.10221701136215 0.8030731637775796 -3.1270030853082593 0.8084226761400493 -3.1401985491356843 0.8219747741249723 C -3.1511947689918713 0.8333870671649075 -3.1533940129631093 0.8473552383335781 -3.135740622166959 0.8520509214073015 C -3.1122622067983423 0.8583514581897655 -3.0877733279834816 0.8453937504673392 -3.067207424901098 0.8362995794511408 C -3.055200741598667 0.8309500670886711 -3.0210827405313605 0.8145448958437647 -3.00711456936269 0.8229852375712166 C -2.9788215928678508 0.8401036771311194 -3.045333863241223 0.8757670928809165 -3.0572216684911555 0.881710995505883 C -3.0897942548759705 0.8978189716195413 -3.1379993051644464 0.908815191475729 -3.1727116964942494 0.8937771178345644 C -3.195120209390372 0.8841479955821188 -3.2073646487978023 0.8643547998409817 -3.2033822340390747 0.8406980673936157 M -3.1579708179843324 1.3781457427430626 L -3.054725229388669 1.4437664277226898 C -3.069425106869957 1.4504933756521416 -3.084028765159937 1.4574286272145474 -3.0985317917346764 1.4645700869100746 C -3.1699775012867644 1.499223039213625 -3.263296772498734 1.549151821263341 -3.355724458316959 1.601101530205546 C -3.478697241159047 1.6704715399741468 -3.600446996021232 1.7419876313311837 -3.720917835594989 1.8156169759406384 C -3.6785378098788746 1.7782298284295397 -3.3003272858522736 1.4457873546151783 -3.1579708179843324 1.3781457427430626 M -3.822974643665555 1.3694082058843622 C -3.729239299269837 1.3327937657145703 -3.7101593718436954 1.4177321342253377 -3.686740395501329 1.529061430390955 C -3.6847789076350894 1.5385716745909013 -3.681985273401356 1.5470120163183534 -3.6786566879313747 1.5546796507045597 L -3.912192622066298 1.6683865079201636 C -3.915996719746276 1.565556992508248 -3.908507402438819 1.4028723776629224 -3.822974643665555 1.3694082058843622 M -4.063702699976687 1.8483084403778918 C -4.068576700129159 1.8477734891416446 -4.352398050471297 1.8102080245518581 -4.351744221182551 1.804442439005641 C -4.351030952867555 1.7986768534594235 -4.066139700052924 1.8268509519017635 -4.061325138926701 1.82744534216426 C -4.056451138774229 1.8279802934005072 -3.7681124224371163 1.866021270200291 -3.7687662517258627 1.8718462947727579 C -3.7694200810146095 1.877611880318975 -4.058888138850465 1.8489028306403883 -4.063702699976687 1.8483084403778918 M -3.9129653294075437 1.8234629274055325 C -3.9129653294075437 1.8234629274055325 -3.905297695021337 1.7949916338319447 -3.9105877683575567 1.70078077722623 L -3.662786467922715 1.5807733832281614 C -3.6189799055767136 1.633317482432863 -3.5387966591659192 1.6207164088679349 -3.5387966591659192 1.6207164088679349 C -3.6501259553315366 1.691805484262531 -3.7687662517258627 1.8381443668891992 -3.7687662517258627 1.8381443668891992 Z M -2.714733999240601 1.6131676525342278 C -2.829807954059948 1.6599461661927117 -2.981912422232834 1.7201578997836195 -3.134076329431969 1.7781109503770405 C -3.2730673348854475 1.8312770616953813 -3.4127204284890733 1.8826958724078415 -3.553002586439719 1.9323552234949615 C -3.667482150996439 1.9727143223184354 -3.744396250963502 1.9976192743170436 -3.745347275383496 1.994885079109559 C -3.746298299803491 1.992091444875825 -3.6714051267289167 1.9620747366197455 -3.558768171985806 1.9170199547225013 C -3.4460123391901964 1.872024611851507 -3.2955721637523014 1.8119911953393482 -3.1449536712356565 1.7504718031709472 C -3.006084215686525 1.6937800844951085 -2.867627277473761 1.6360830890635745 -2.7295937558029575 1.577385358731905 C -2.6155302644299145 1.5287047962334575 -2.5379623351741047 1.4947056732186506 -2.532910017942884 1.4925658682736627 C -2.52298370055919 1.4879890632524386 -2.21497066653344 1.3607895470781612 -1.9166461937863848 1.2193841036302144 C -1.767335359847233 1.148889418498115 -1.6208181601418152 1.0743528795810386 -1.5131146445774268 1.0147355362526271 C -1.4052922509605397 0.9554748270817137 -1.3361052244059328 0.9114305086307142 -1.3344409316709425 0.9138675087069503 C -1.3328955169884509 0.916185630730687 -1.3991105922305747 0.9649850712816599 -1.5049120589549738 1.0289414635262966 C -1.610475769574374 1.093135611875932 -1.7555069936235501 1.1719517606829841 -1.903569608011459 1.2461316654425627 C -2.199575958734777 1.3948481091192177 -2.506340773209285 1.526683869340969 -2.5163859686454777 1.531260674362193 C -2.521438285876699 1.533341040280931 -2.5996006053950045 1.5663891388757432 -2.7147339992406003 1.6131676525342278 M -2.010024904024604 1.3327343266883207 C -2.047277913627041 1.3538646236713567 -2.085053307056998 1.3740603875250428 -2.123315688056451 1.3933026944367215 C -2.1801508092849176 1.4221154189602478 -2.2373557375378854 1.4501927945523696 -2.294916156839192 1.4775277946324767 C -2.2977692300992194 1.4788948922362402 -2.3826481595837374 1.5167575519572754 -2.467467650042005 1.5527776018645707 C -2.552227701474024 1.5889165298243655 -2.636868874853543 1.6233911650491692 -2.638057655378536 1.6207164088679349 C -2.63918699687728 1.6180416526866996 -2.5567450674689987 1.5788118953619228 -2.473589869745721 1.5392849429058972 L -2.3037131327241855 1.4584478672063566 C -2.300919498490451 1.4571402086288638 -2.2147329104284412 1.418920914750331 -2.129794541917674 1.3799289135305526 C -2.087295638149165 1.3604329129206634 -2.0451533685381547 1.3406991562057755 -2.0138884407308324 1.3254827654858616 C -1.982445195844761 1.3103852528184474 -1.962057609841127 1.2994484719885098 -1.961344341526131 1.3005778134872532 C -1.9605121951586355 1.301885472064746 -1.979651561611027 1.3153186919971698 -2.010024904024604 1.3327343266883207 M -1.306445150307351 1.391281767544238 C -1.2895050278261975 1.386348328365516 -1.2744669541850326 1.3867049625230141 -1.2728621004762921 1.3921139139117336 C -1.2712572467675511 1.3975228653004528 -1.2837394422799804 1.4059632070279047 -1.3007390037873834 1.4108966462066268 C -1.3177385652947868 1.4158895244115983 -1.3327766389359517 1.4154734512278506 -1.3343220536184428 1.4100644998391312 C -1.3359269073271838 1.404655548450412 -1.3234447118147545 1.39621520672296 -1.306445150307351 1.391281767544238 M -1.3667163229245087 1.397641743352952 C -1.3619017617982858 1.3889042064942518 -1.3542341274120795 1.3826036697117872 -1.3478741516033659 1.3797505964518035 C -1.3415141757946518 1.3767786451393207 -1.3368184927209286 1.37689752319182 -1.336402419537181 1.378145742743063 C -1.3358080292746841 1.3795722793730545 -1.3392554927971645 1.38212815750179 -1.3431784685296422 1.3864077673917659 C -1.34776693119945 1.3913151128602421 -1.351163493402964 1.3972133346507756 -1.3531047859133358 1.4036450850041677 C -1.3548360195398557 1.4096434304437573 -1.355020057109158 1.4159825022752806 -1.353639737149583 1.422071183141563 C -1.35245095662459 1.4268857442677858 -1.3507272248633497 1.4297388175277694 -1.3507272248633497 1.4299765736327683 C -1.3505489077846007 1.430214329737767 -1.3498356394696045 1.433364598128999 -1.3473392003671187 1.437584768992725 C -1.344248985945519 1.442928307345749 -1.3397986864547753 1.447358098543909 -1.334440931670942 1.4504235986626524 C -1.3287313520822668 1.4537713224953897 -1.3223213812798047 1.455745186520275 -1.3157176384022984 1.4561891842088692 C -1.3100709309085805 1.4567241354451164 -1.3059101990711044 1.4563080622613687 -1.3053158088086074 1.4577345988913606 C -1.3048402965986101 1.4589828184426037 -1.3081094430423414 1.4621330868338356 -1.3147071749560544 1.4643323308050733 C -1.3230225663265824 1.466899820723694 -1.3319278462818125 1.4668375460386924 -1.340206517217159 1.4641540137263243 C -1.3490403638765422 1.4614111008410369 -1.3569141105051212 1.456216901494435 -1.3629122252445303 1.4491753791114093 C -1.3680239815020014 1.443231476486443 -1.36998546936824 1.4381197202289722 -1.370223225473239 1.4378819641239733 C -1.3702826644994883 1.437584768992725 -1.3723630304182266 1.4324135737090045 -1.3728979816544733 1.4245081832177993 C -1.3734191627280437 1.4151483553203177 -1.371275712396304 1.4058325904169866 -1.3667163229245087 1.397641743352952 M -1.5072896200049604 1.392886621252979 C -1.4871992291325742 1.3850406697880235 -1.3846669088519064 1.3257799606171101 -1.3843697137206585 1.3793939622943054 C -1.4086802754567702 1.3896769138354972 -1.4376865202666056 1.3916978407279856 -1.4637208137639575 1.3944320359354703 C -1.474063204331399 1.3955019384079643 -1.5072896200049604 1.3998409873241895 -1.5131740836036767 1.3943725969092207 Z M -1.553949255610945 1.2732358614124086 C -1.5374846453397888 1.2683618612599366 -1.5228032058561216 1.2687184954174342 -1.521257791173631 1.2740085687536544 C -1.5197123764911398 1.279358081116124 -1.5318379378460705 1.2875012277123277 -1.5484214261697264 1.2923752278648 C -1.5649454754671326 1.2971303499647728 -1.5796269149507993 1.2968331548335248 -1.5811723296332905 1.2915430814973048 C -1.5827177443157816 1.2862530081610846 -1.570532743934601 1.2780504225386313 -1.553949255610945 1.2732358614124086 M -1.620877599168065 1.278823129879877 C -1.616122477068092 1.2701450320474261 -1.6084548426818852 1.2637256172124627 -1.6021543058994214 1.2609319829787289 C -1.5957348910644575 1.258019470692495 -1.5910392079907343 1.258019470692495 -1.5906231348069868 1.2593271292699877 C -1.5900287445444903 1.2607536658999798 -1.5934762080669707 1.263309544028715 -1.5973397447731985 1.2675891539186905 C -1.6019671530420956 1.272477475424474 -1.6053868506446047 1.2783805248573767 -1.6073255011831415 1.2848264715310929 C -1.6090879390095298 1.2908401948507067 -1.6092721708590791 1.2972064287629226 -1.6078604524193887 1.3033120086947378 C -1.6066716718943956 1.308067130794711 -1.604947940133155 1.311039082107194 -1.6048885011069056 1.311217399185943 C -1.604769623054406 1.311336277238442 -1.6040563547394102 1.3146054236821738 -1.6015599156369245 1.3188255945458998 C -1.5984223077592654 1.3240966847974471 -1.5940066790544853 1.3284918707767417 -1.588721085966998 1.331604985189577 C -1.5830045468152556 1.3349368643377133 -1.5765983764492555 1.3369095580694659 -1.569997792698354 1.3373705707357946 C -1.564351085204636 1.3379055219720417 -1.5601309143409097 1.3374894487882938 -1.5595365240784131 1.3389159854182855 C -1.559001572842166 1.3401642049695284 -1.5623301583121476 1.34337391238701 -1.5689278902258597 1.345513717331998 C -1.5772639529968995 1.3480782756967908 -1.5861872030113076 1.3480160204641325 -1.5944866715132147 1.3453354002532494 C -1.6077182686672171 1.3411979956745759 -1.6185803149377986 1.3316532154527125 -1.6243845017167948 1.3190633506508986 C -1.624503379769294 1.3187661555196502 -1.6265837456880328 1.313654399262179 -1.6270592578980296 1.3057490087709742 C -1.627625136364789 1.296366486086078 -1.6254792037520271 1.2870192988401044 -1.620877599168065 1.278823129879877 M -1.8617245335316968 1.343076717255762 C -1.842287971948057 1.3345174974758105 -1.827249898306892 1.3185283994146515 -1.8075755806182543 1.3097314235297013 C -1.7906354581371007 1.302242106222244 -1.7736953356559466 1.2942772767047892 -1.7566363351222938 1.2870257155023306 C -1.721388992556244 1.2721659589399146 -1.682634747441464 1.2563551779575046 -1.6437616242741848 1.258376104849993 C -1.629317940895517 1.2828055446386042 -1.7422520907698753 1.2819139592448592 -1.7490281397623368 1.3214409117008847 C -1.7517623349698215 1.3370139365782965 -1.7432031151898704 1.3402830830220278 -1.7592516522772788 1.3507443516419686 C -1.77137721363221 1.358709181159423 -1.787722945850867 1.3670900838606257 -1.8027610194920318 1.366495693598129 C -1.8180962882644445 1.3658418643093828 -1.8541757771979896 1.3526464004819576 -1.8617245335316972 1.343076717255762 M -1.7354166027511644 1.5016600392898611 C -1.7736358966296972 1.5121213079098015 -1.8125684588232258 1.5153310153272834 -1.812925092980724 1.5124779420672996 C -1.8134006051907212 1.5096248688073157 -1.7757162625484355 1.5011845270798636 -1.7398745297198888 1.487454112016192 C -1.7037950407863436 1.4744369652675158 -1.6703308690077838 1.455535354920123 -1.66926096653529 1.4549409646576263 C -1.6681316250365463 1.4544060134213797 -1.633894745916741 1.4382385982814716 -1.6035214035031635 1.416127280516597 C -1.5881861347307509 1.405249938712909 -1.5738018903783324 1.3931243773579778 -1.5634594998108913 1.3835546941317822 C -1.5529982311909505 1.3740444499318358 -1.546578816355987 1.3671495228868753 -1.5453305968047442 1.3679816692543705 C -1.5441418162797507 1.368754376595616 -1.5485403042222257 1.377551352480566 -1.5573967191334255 1.3890825235730009 C -1.5683987947835791 1.4031437021025839 -1.5807408240132181 1.4161028327937049 -1.5942489154082162 1.427777329661531 C -1.6143581620752885 1.4452545640015915 -1.636230493152611 1.4605930839738486 -1.6595129662303454 1.473545379873771 C -1.6838582258688324 1.485319536779064 -1.7092755651177765 1.4947341033137158 -1.7354166027511635 1.5016600392898607 M -1.459322325821483 1.5807733832281619 C -1.4840059201123892 1.5869826813606696 -1.5092606013607615 1.5906473985134304 -1.5346910111060548 1.5917101640580995 C -1.5720187195908424 1.5936122128980887 -1.6083359646293864 1.5876088712468728 -1.6080387694981377 1.5846963589606395 C -1.6078010133931393 1.5818432857006557 -1.571602646407095 1.5824376759631522 -1.5360581087097969 1.5769098465219336 C -1.512000009876603 1.5733802067029958 -1.4882661678687321 1.5679138695571297 -1.4650879113677004 1.5605641143032765 C -1.4640180088952062 1.560266919172028 -1.429543373670402 1.551826577444576 -1.3973868604693345 1.5371451379609093 C -1.3812788843556763 1.5299530157847003 -1.3657058594782643 1.521572113083498 -1.3543530054645787 1.5148555031172861 C -1.3428218343721445 1.508198332177324 -1.3354513951171865 1.5032648929986019 -1.3344409316709425 1.5043347954710957 C -1.333430468224698 1.5054046979435898 -1.339196053770915 1.512596820119799 -1.3494790053121068 1.521572113083498 C -1.3622930273036267 1.532401082144946 -1.3760596383082646 1.5420496462161157 -1.3906108114768734 1.5504000408145842 C -1.412409229163551 1.5628604049126416 -1.4354349482269204 1.5730387288238714 -1.4593223258214834 1.5807733832281619" fill="#382d5e" transform="matrix(1,0,0,1,0,0)" fill-rule="nonzero"></path></g><g clip-path="url(#bd3f33274-a428-4a4a-91b6-e3291184b6fa745422c7-73f9-4908-96c2-d93e1b772f80)"><path d=" M -1.9808403421360197 0.7902343341076528 L -1.9662777807048526 0.8295829694849293 L -1.922590096411351 0.8147826519487633 L -1.9414917067587436 0.7800108215927108 Z" fill="#382d5e" transform="matrix(1,0,0,1,0,0)" fill-rule="nonzero"></path></g><g clip-path="url(#bd3f33274-a428-4a4a-91b6-e3291184b6fa745422c7-73f9-4908-96c2-d93e1b772f80)"><path d=" M -1.922590096411351 0.7756717726764855 L -1.9036290470377089 0.8077094078250535 L -1.865766387316674 0.7953460903651237 L -1.8941782418640125 0.7669342358177851 Z" fill="#382d5e" transform="matrix(1,0,0,1,0,0)" fill-rule="nonzero"></path></g><g clip-path="url(#bd3f33274-a428-4a4a-91b6-e3291184b6fa745422c7-73f9-4908-96c2-d93e1b772f80)"><path d=" M -1.8752766315166198 0.7634867722953049 L -1.8483507526255227 0.7872623827951699 L -1.8097153855632424 0.7800108215927111 C -1.8097153855632424 0.7800108215927111 -1.837413971795585 0.7511234548353753 -1.8752766315166198 0.7634867722953049" fill="#382d5e" transform="matrix(1,0,0,1,0,0)" fill-rule="nonzero"></path></g><g clip-path="url(#bd3f33274-a428-4a4a-91b6-e3291184b6fa745422c7-73f9-4908-96c2-d93e1b772f80)"><path d=" M -0.5188780524993257 2.727530516662897 L -0.40000000000000124 2.727530516662897 L -0.40000000000000124 -0.43313970416289704 L -0.5188780524993257 -0.43313970416289704 Z" fill="#382d5e" transform="matrix(1,0,0,1,0,0)" fill-rule="nonzero"></path></g></g></g><defs><clipPath id="SvgjsClipPath1001"><path d=" M -4.575586570209439 -0.43313970416289704 h 4.175586570209439 v 3.160670220825794 h -4.175586570209439 Z"></path></clipPath><clipPath id="bd3f33274-a428-4a4a-91b6-e3291184b6fa745422c7-73f9-4908-96c2-d93e1b772f80"><path d=" M -4.635030620288442 -0.4925787304125595 L -0.340560973750339 -0.4925787304125595 L -0.340560973750339 2.78696954291256 L -4.635030620288442 2.78696954291256 Z"></path></clipPath></defs></svg>